<svg version="1.1" preserveAspectRatio="none" xmlns="http://www.w3.org/2000/svg" width="500" height="500" viewBox="0 0 500 500"><rect width="100%" height="100%" fill="#FFFFFF" fill-opacity="1"/><svg viewBox="45.397 172.218 399.1176 146.6651" width="333" height="122.3686409719842" x="83.5px" y="188.8157px" xmlns="http://www.w3.org/2000/svg" xmlns:xlink="http://www.w3.org/1999/xlink" preserveAspectRatio="none"><defs></defs><style>.companyName {fill:#393939;fill-opacity:1;}.icon1 {fill:#F56E56;fill-opacity:1;}.icon2 {fill:#1E1E1E;fill-opacity:1;}.icon3 {fill:#D0D0D0;fill-opacity:1;}.icon3-str {stroke:#D0D0D0;stroke-opacity:1;}.text {fill:#434343;fill-opacity:1;}</style><g opacity="1" transform="rotate(0 53.4017 302.0831)">
<svg width="383.1082" height="16.8" x="53.4017" y="302.0831" version="1.1" preserveAspectRatio="none" viewBox="4.56 -29.68 858.2800000000001 37.64">
  <g transform="matrix(1 0 0 1 0 0)" class="text"><path id="id-6izo4zJp36" d="M4.56 0L4.56-28L7.52-28L7.52-2.56L23.20-2.56L23.20 0L4.56 0Z M47.56-10.52L47.52-9.64L29.92-9.64Q30.16-6.36 32.44-4.34Q34.72-2.32 38.20-2.32L38.20-2.32Q40.16-2.32 41.80-3.02Q43.44-3.72 44.64-5.08L44.64-5.08L46.24-3.24Q44.84-1.56 42.74-0.68Q40.64 0.20 38.12 0.20L38.12 0.20Q34.88 0.20 32.38-1.18Q29.88-2.56 28.48-5Q27.08-7.44 27.08-10.52L27.08-10.52Q27.08-13.60 28.42-16.04Q29.76-18.48 32.10-19.84Q34.44-21.20 37.36-21.20L37.36-21.20Q40.28-21.20 42.60-19.84Q44.92-18.48 46.24-16.06Q47.56-13.64 47.56-10.52L47.56-10.52ZM37.36-18.76Q34.32-18.76 32.26-16.82Q30.20-14.88 29.92-11.76L29.92-11.76L44.84-11.76Q44.56-14.88 42.50-16.82Q40.44-18.76 37.36-18.76L37.36-18.76Z M65.44-3.32L66.44-1.28Q65.64-0.56 64.46-0.18Q63.28 0.20 62 0.20L62 0.20Q59.04 0.20 57.44-1.40Q55.84-3 55.84-5.92L55.84-5.92L55.84-18.64L52.08-18.64L52.08-21.04L55.84-21.04L55.84-25.64L58.68-25.64L58.68-21.04L65.08-21.04L65.08-18.64L58.68-18.64L58.68-6.08Q58.68-4.20 59.62-3.22Q60.56-2.24 62.32-2.24L62.32-2.24Q63.20-2.24 64.02-2.52Q64.84-2.80 65.44-3.32L65.44-3.32Z M113.32-28L115.76-28L115.76 0L112.92 0L112.92-22.40L101.92-3.56L100.52-3.56L89.52-22.28L89.52 0L86.68 0L86.68-28L89.12-28L101.28-7.24L113.32-28Z M142.40-21.04L145.24-21.04L145.24 0L142.52 0L142.52-3.84Q141.40-1.92 139.44-0.86Q137.48 0.20 134.96 0.20L134.96 0.20Q130.84 0.20 128.46-2.10Q126.08-4.40 126.08-8.84L126.08-8.84L126.08-21.04L128.92-21.04L128.92-9.12Q128.92-5.80 130.56-4.08Q132.20-2.36 135.24-2.36L135.24-2.36Q138.56-2.36 140.48-4.38Q142.40-6.40 142.40-10L142.40-10L142.40-21.04Z M160.84 0.20Q158.28 0.20 155.94-0.54Q153.60-1.28 152.28-2.40L152.28-2.40L153.56-4.64Q154.88-3.60 156.88-2.94Q158.88-2.28 161.04-2.28L161.04-2.28Q163.92-2.28 165.30-3.18Q166.68-4.08 166.68-5.72L166.68-5.72Q166.68-6.88 165.92-7.54Q165.16-8.20 164-8.54Q162.84-8.88 160.92-9.20L160.92-9.20Q158.36-9.68 156.80-10.18Q155.24-10.68 154.14-11.88Q153.04-13.08 153.04-15.20L153.04-15.20Q153.04-17.84 155.24-19.52Q157.44-21.20 161.36-21.20L161.36-21.20Q163.40-21.20 165.44-20.66Q167.48-20.12 168.80-19.24L168.80-19.24L167.56-16.96Q164.96-18.76 161.36-18.76L161.36-18.76Q158.64-18.76 157.26-17.80Q155.88-16.84 155.88-15.28L155.88-15.28Q155.88-14.08 156.66-13.36Q157.44-12.64 158.60-12.30Q159.76-11.96 161.80-11.60L161.80-11.60Q164.32-11.12 165.84-10.64Q167.36-10.16 168.44-9Q169.52-7.84 169.52-5.80L169.52-5.80Q169.52-3.04 167.22-1.42Q164.92 0.20 160.84 0.20L160.84 0.20Z M176.76 0L176.76-21.04L179.60-21.04L179.60 0L176.76 0ZM178.20-25.64Q177.32-25.64 176.72-26.24Q176.12-26.84 176.12-27.68L176.12-27.68Q176.12-28.48 176.72-29.08Q177.32-29.68 178.20-29.68L178.20-29.68Q179.08-29.68 179.68-29.10Q180.28-28.52 180.28-27.72L180.28-27.72Q180.28-26.84 179.68-26.24Q179.08-25.64 178.20-25.64L178.20-25.64Z M198.24 0.20Q195.12 0.20 192.66-1.16Q190.20-2.52 188.80-4.98Q187.40-7.44 187.40-10.52L187.40-10.52Q187.40-13.60 188.80-16.04Q190.20-18.48 192.66-19.84Q195.12-21.20 198.24-21.20L198.24-21.20Q200.96-21.20 203.10-20.14Q205.24-19.08 206.48-17.04L206.48-17.04L204.36-15.60Q203.32-17.16 201.72-17.94Q200.12-18.72 198.24-18.72L198.24-18.72Q195.96-18.72 194.14-17.70Q192.32-16.68 191.30-14.80Q190.28-12.92 190.28-10.52L190.28-10.52Q190.28-8.08 191.30-6.22Q192.32-4.36 194.14-3.34Q195.96-2.32 198.24-2.32L198.24-2.32Q200.12-2.32 201.72-3.08Q203.32-3.84 204.36-5.40L204.36-5.40L206.48-3.96Q205.24-1.92 203.08-0.86Q200.92 0.20 198.24 0.20L198.24 0.20Z M244.76-14.44Q247.52-13.84 249.02-12.06Q250.52-10.28 250.52-7.48L250.52-7.48Q250.52-3.88 247.86-1.94Q245.20 0 240 0L240 0L227.12 0L227.12-28L239.20-28Q243.88-28 246.46-26.12Q249.04-24.24 249.04-20.80L249.04-20.80Q249.04-18.48 247.90-16.86Q246.76-15.24 244.76-14.44L244.76-14.44ZM239-25.56L230.08-25.56L230.08-15.40L239-15.40Q242.40-15.40 244.24-16.70Q246.08-18 246.08-20.48L246.08-20.48Q246.08-22.96 244.24-24.26Q242.40-25.56 239-25.56L239-25.56ZM239.96-2.44Q243.72-2.44 245.64-3.72Q247.56-5 247.56-7.72L247.56-7.72Q247.56-12.96 239.96-12.96L239.96-12.96L230.08-12.96L230.08-2.44L239.96-2.44Z M277.04-10.52L277-9.64L259.40-9.64Q259.64-6.36 261.92-4.34Q264.20-2.32 267.68-2.32L267.68-2.32Q269.64-2.32 271.28-3.02Q272.92-3.72 274.12-5.08L274.12-5.08L275.72-3.24Q274.32-1.56 272.22-0.68Q270.12 0.20 267.60 0.20L267.60 0.20Q264.36 0.20 261.86-1.18Q259.36-2.56 257.96-5Q256.56-7.44 256.56-10.52L256.56-10.52Q256.56-13.60 257.90-16.04Q259.24-18.48 261.58-19.84Q263.92-21.20 266.84-21.20L266.84-21.20Q269.76-21.20 272.08-19.84Q274.40-18.48 275.72-16.06Q277.04-13.64 277.04-10.52L277.04-10.52ZM266.84-18.76Q263.80-18.76 261.74-16.82Q259.68-14.88 259.40-11.76L259.40-11.76L274.32-11.76Q274.04-14.88 271.98-16.82Q269.92-18.76 266.84-18.76L266.84-18.76Z M318.72-28L307.52-9.68L307.52 0L304.60 0L304.60-9.68L293.40-28L296.56-28L306.16-12.28L315.76-28L318.72-28Z M330.92 0.20Q327.88 0.20 325.44-1.18Q323-2.56 321.60-5Q320.20-7.44 320.20-10.52L320.20-10.52Q320.20-13.60 321.60-16.04Q323-18.48 325.44-19.84Q327.88-21.20 330.92-21.20L330.92-21.20Q333.96-21.20 336.40-19.84Q338.84-18.48 340.22-16.04Q341.60-13.60 341.60-10.52L341.60-10.52Q341.60-7.44 340.22-5Q338.84-2.56 336.40-1.18Q333.96 0.20 330.92 0.20L330.92 0.20ZM330.92-2.32Q333.16-2.32 334.94-3.34Q336.72-4.36 337.72-6.24Q338.72-8.12 338.72-10.52L338.72-10.52Q338.72-12.92 337.72-14.80Q336.72-16.68 334.94-17.70Q333.16-18.72 330.92-18.72L330.92-18.72Q328.68-18.72 326.90-17.70Q325.12-16.68 324.10-14.80Q323.08-12.92 323.08-10.52L323.08-10.52Q323.08-8.12 324.10-6.24Q325.12-4.36 326.90-3.34Q328.68-2.32 330.92-2.32L330.92-2.32Z M365.52-21.04L368.36-21.04L368.36 0L365.64 0L365.64-3.84Q364.52-1.92 362.56-0.86Q360.60 0.20 358.08 0.20L358.08 0.20Q353.96 0.20 351.58-2.10Q349.20-4.40 349.20-8.84L349.20-8.84L349.20-21.04L352.04-21.04L352.04-9.12Q352.04-5.80 353.68-4.08Q355.32-2.36 358.36-2.36L358.36-2.36Q361.68-2.36 363.60-4.38Q365.52-6.40 365.52-10L365.52-10L365.52-21.04Z M381.04-16.92Q382.04-19.04 384.02-20.12Q386-21.20 388.92-21.20L388.92-21.20L388.92-18.44L388.24-18.48Q384.92-18.48 383.04-16.44Q381.16-14.40 381.16-10.72L381.16-10.72L381.16 0L378.32 0L378.32-21.04L381.04-21.04L381.04-16.92Z M412.40-2.56L429.24-2.56L429.24 0L409.44 0L409.44-28L428.64-28L428.64-25.44L412.40-25.44L412.40-15.48L426.88-15.48L426.88-12.96L412.40-12.96L412.40-2.56Z M452.04-21.04L454.84-21.04L445.48 0L442.56 0L433.24-21.04L436.20-21.04L444.08-3.12L452.04-21.04Z M478.60-10.52L478.56-9.64L460.96-9.64Q461.20-6.36 463.48-4.34Q465.76-2.32 469.24-2.32L469.24-2.32Q471.20-2.32 472.84-3.02Q474.48-3.72 475.68-5.08L475.68-5.08L477.28-3.24Q475.88-1.56 473.78-0.68Q471.68 0.20 469.16 0.20L469.16 0.20Q465.92 0.20 463.42-1.18Q460.92-2.56 459.52-5Q458.12-7.44 458.12-10.52L458.12-10.52Q458.12-13.60 459.46-16.04Q460.80-18.48 463.14-19.84Q465.48-21.20 468.40-21.20L468.40-21.20Q471.32-21.20 473.64-19.84Q475.96-18.48 477.28-16.06Q478.60-13.64 478.60-10.52L478.60-10.52ZM468.40-18.76Q465.36-18.76 463.30-16.82Q461.24-14.88 460.96-11.76L460.96-11.76L475.88-11.76Q475.60-14.88 473.54-16.82Q471.48-18.76 468.40-18.76L468.40-18.76Z M489.12-16.92Q490.12-19.04 492.10-20.12Q494.08-21.20 497.00-21.20L497.00-21.20L497.00-18.44L496.32-18.48Q493.00-18.48 491.12-16.44Q489.24-14.40 489.24-10.72L489.24-10.72L489.24 0L486.40 0L486.40-21.04L489.12-21.04L489.12-16.92Z M519.92-21.04L522.72-21.04L512.20 2.52Q510.92 5.48 509.24 6.72Q507.56 7.96 505.20 7.96L505.20 7.96Q503.68 7.96 502.36 7.48Q501.04 7 500.08 6.04L500.08 6.04L501.40 3.92Q503.00 5.52 505.24 5.52L505.24 5.52Q506.68 5.52 507.70 4.72Q508.72 3.92 509.60 2L509.60 2L510.52-0.04L501.12-21.04L504.08-21.04L512.00-3.16L519.92-21.04Z M544.48-29.68L547.32-29.68L547.32 0L544.60 0L544.60-4.16Q543.32-2.04 541.22-0.92Q539.12 0.20 536.48 0.20L536.48 0.20Q533.52 0.20 531.12-1.16Q528.72-2.52 527.36-4.96Q526.00-7.40 526.00-10.52L526.00-10.52Q526.00-13.64 527.36-16.08Q528.72-18.52 531.12-19.86Q533.52-21.20 536.48-21.20L536.48-21.20Q539.04-21.20 541.10-20.14Q543.16-19.08 544.48-17.04L544.48-17.04L544.48-29.68ZM536.72-2.32Q538.92-2.32 540.70-3.34Q542.48-4.36 543.50-6.24Q544.52-8.12 544.52-10.52L544.52-10.52Q544.52-12.92 543.50-14.80Q542.48-16.68 540.70-17.70Q538.92-18.72 536.72-18.72L536.72-18.72Q534.48-18.72 532.70-17.70Q530.92-16.68 529.90-14.80Q528.88-12.92 528.88-10.52L528.88-10.52Q528.88-8.12 529.90-6.24Q530.92-4.36 532.70-3.34Q534.48-2.32 536.72-2.32L536.72-2.32Z M564.60-21.20Q568.72-21.20 570.92-19.14Q573.12-17.08 573.12-13.04L573.12-13.04L573.12 0L570.40 0L570.40-3.28Q569.44-1.64 567.58-0.72Q565.72 0.20 563.16 0.20L563.16 0.20Q559.64 0.20 557.56-1.48Q555.48-3.16 555.48-5.92L555.48-5.92Q555.48-8.60 557.42-10.24Q559.36-11.88 563.60-11.88L563.60-11.88L570.28-11.88L570.28-13.16Q570.28-15.88 568.76-17.30Q567.24-18.72 564.32-18.72L564.32-18.72Q562.32-18.72 560.48-18.06Q558.64-17.40 557.32-16.24L557.32-16.24L556.04-18.36Q557.64-19.72 559.88-20.46Q562.12-21.20 564.60-21.20L564.60-21.20ZM563.60-2.04Q566.00-2.04 567.72-3.14Q569.44-4.24 570.28-6.32L570.28-6.32L570.28-9.76L563.68-9.76Q558.28-9.76 558.28-6L558.28-6Q558.28-4.16 559.68-3.10Q561.08-2.04 563.60-2.04L563.60-2.04Z M597.32-21.04L600.12-21.04L589.60 2.52Q588.32 5.48 586.64 6.72Q584.96 7.96 582.60 7.96L582.60 7.96Q581.08 7.96 579.76 7.48Q578.44 7 577.48 6.04L577.48 6.04L578.80 3.92Q580.40 5.52 582.64 5.52L582.64 5.52Q584.08 5.52 585.10 4.72Q586.12 3.92 587.00 2L587.00 2L587.92-0.04L578.52-21.04L581.48-21.04L589.40-3.16L597.32-21.04Z M631.36 0.24Q627.20 0.24 623.86-1.60Q620.52-3.44 618.62-6.70Q616.72-9.96 616.72-14L616.72-14Q616.72-18.04 618.62-21.30Q620.52-24.56 623.88-26.40Q627.24-28.24 631.40-28.24L631.40-28.24Q634.52-28.24 637.16-27.20Q639.80-26.16 641.64-24.16L641.64-24.16L639.76-22.28Q636.48-25.60 631.48-25.60L631.48-25.60Q628.16-25.60 625.44-24.08Q622.72-22.56 621.18-19.92Q619.64-17.28 619.64-14L619.64-14Q619.64-10.72 621.18-8.08Q622.72-5.44 625.44-3.92Q628.16-2.40 631.48-2.40L631.48-2.40Q636.52-2.40 639.76-5.76L639.76-5.76L641.64-3.88Q639.80-1.88 637.14-0.82Q634.48 0.24 631.36 0.24L631.36 0.24Z M657.04 0.20Q654.00 0.20 651.56-1.18Q649.12-2.56 647.72-5Q646.32-7.44 646.32-10.52L646.32-10.52Q646.32-13.60 647.72-16.04Q649.12-18.48 651.56-19.84Q654.00-21.20 657.04-21.20L657.04-21.20Q660.08-21.20 662.52-19.84Q664.96-18.48 666.34-16.04Q667.72-13.60 667.72-10.52L667.72-10.52Q667.72-7.44 666.34-5Q664.96-2.56 662.52-1.18Q660.08 0.20 657.04 0.20L657.04 0.20ZM657.04-2.32Q659.28-2.32 661.06-3.34Q662.84-4.36 663.84-6.24Q664.84-8.12 664.84-10.52L664.84-10.52Q664.84-12.92 663.84-14.80Q662.84-16.68 661.06-17.70Q659.28-18.72 657.04-18.72L657.04-18.72Q654.80-18.72 653.02-17.70Q651.24-16.68 650.22-14.80Q649.20-12.92 649.20-10.52L649.20-10.52Q649.20-8.12 650.22-6.24Q651.24-4.36 653.02-3.34Q654.80-2.32 657.04-2.32L657.04-2.32Z M701.76-21.20Q705.72-21.20 707.98-18.92Q710.24-16.64 710.24-12.20L710.24-12.20L710.24 0L707.40 0L707.40-11.92Q707.40-15.20 705.82-16.92Q704.24-18.64 701.36-18.64L701.36-18.64Q698.08-18.64 696.20-16.62Q694.32-14.60 694.32-11.04L694.32-11.04L694.32 0L691.48 0L691.48-11.92Q691.48-15.20 689.90-16.92Q688.32-18.64 685.40-18.64L685.40-18.64Q682.16-18.64 680.26-16.62Q678.36-14.60 678.36-11.04L678.36-11.04L678.36 0L675.52 0L675.52-21.04L678.24-21.04L678.24-17.20Q679.36-19.12 681.36-20.16Q683.36-21.20 685.96-21.20L685.96-21.20Q688.60-21.20 690.54-20.08Q692.48-18.96 693.44-16.76L693.44-16.76Q694.60-18.84 696.78-20.02Q698.96-21.20 701.76-21.20L701.76-21.20Z M730.80-21.20Q733.76-21.20 736.16-19.86Q738.56-18.52 739.92-16.08Q741.28-13.64 741.28-10.52L741.28-10.52Q741.28-7.36 739.92-4.92Q738.56-2.48 736.18-1.14Q733.80 0.20 730.80 0.20L730.80 0.20Q728.24 0.20 726.18-0.86Q724.12-1.92 722.80-3.96L722.80-3.96L722.80 7.76L719.96 7.76L719.96-21.04L722.68-21.04L722.68-16.88Q723.96-18.96 726.06-20.08Q728.16-21.20 730.80-21.20L730.80-21.20ZM730.60-2.32Q732.80-2.32 734.60-3.34Q736.40-4.36 737.42-6.24Q738.44-8.12 738.44-10.52L738.44-10.52Q738.44-12.92 737.42-14.78Q736.40-16.64 734.60-17.68Q732.80-18.72 730.60-18.72L730.60-18.72Q728.36-18.72 726.58-17.68Q724.80-16.64 723.78-14.78Q722.76-12.92 722.76-10.52L722.76-10.52Q722.76-8.12 723.78-6.24Q724.80-4.36 726.58-3.34Q728.36-2.32 730.60-2.32L730.60-2.32Z M756.32-21.20Q760.44-21.20 762.64-19.14Q764.84-17.08 764.84-13.04L764.84-13.04L764.84 0L762.12 0L762.12-3.28Q761.16-1.64 759.30-0.72Q757.44 0.20 754.88 0.20L754.88 0.20Q751.36 0.20 749.28-1.48Q747.20-3.16 747.20-5.92L747.20-5.92Q747.20-8.60 749.14-10.24Q751.08-11.88 755.32-11.88L755.32-11.88L762.00-11.88L762.00-13.16Q762.00-15.88 760.48-17.30Q758.96-18.72 756.04-18.72L756.04-18.72Q754.04-18.72 752.20-18.06Q750.36-17.40 749.04-16.24L749.04-16.24L747.76-18.36Q749.36-19.72 751.60-20.46Q753.84-21.20 756.32-21.20L756.32-21.20ZM755.32-2.04Q757.72-2.04 759.44-3.14Q761.16-4.24 762.00-6.32L762.00-6.32L762.00-9.76L755.40-9.76Q750.00-9.76 750.00-6L750.00-6Q750.00-4.16 751.40-3.10Q752.80-2.04 755.32-2.04L755.32-2.04Z M785.28-21.20Q789.24-21.20 791.58-18.90Q793.92-16.60 793.92-12.20L793.92-12.20L793.92 0L791.08 0L791.08-11.92Q791.08-15.20 789.44-16.92Q787.80-18.64 784.76-18.64L784.76-18.64Q781.36-18.64 779.38-16.62Q777.40-14.60 777.40-11.04L777.40-11.04L777.40 0L774.56 0L774.56-21.04L777.28-21.04L777.28-17.16Q778.44-19.08 780.50-20.14Q782.56-21.20 785.28-21.20L785.28-21.20Z M803.64 0L803.64-21.04L806.48-21.04L806.48 0L803.64 0ZM805.08-25.64Q804.20-25.64 803.60-26.24Q803.00-26.84 803.00-27.68L803.00-27.68Q803.00-28.48 803.60-29.08Q804.20-29.68 805.08-29.68L805.08-29.68Q805.96-29.68 806.56-29.10Q807.16-28.52 807.16-27.72L807.16-27.72Q807.16-26.84 806.56-26.24Q805.96-25.64 805.08-25.64L805.08-25.64Z M825.00 0.20Q821.96 0.20 819.52-1.18Q817.08-2.56 815.68-5Q814.28-7.44 814.28-10.52L814.28-10.52Q814.28-13.60 815.68-16.04Q817.08-18.48 819.52-19.84Q821.96-21.20 825.00-21.20L825.00-21.20Q828.04-21.20 830.48-19.84Q832.92-18.48 834.30-16.04Q835.68-13.60 835.68-10.52L835.68-10.52Q835.68-7.44 834.30-5Q832.92-2.56 830.48-1.18Q828.04 0.20 825.00 0.20L825.00 0.20ZM825.00-2.32Q827.24-2.32 829.02-3.34Q830.80-4.36 831.80-6.24Q832.80-8.12 832.80-10.52L832.80-10.52Q832.80-12.92 831.80-14.80Q830.80-16.68 829.02-17.70Q827.24-18.72 825.00-18.72L825.00-18.72Q822.76-18.72 820.98-17.70Q819.20-16.68 818.18-14.80Q817.16-12.92 817.16-10.52L817.16-10.52Q817.16-8.12 818.18-6.24Q819.20-4.36 820.98-3.34Q822.76-2.32 825.00-2.32L825.00-2.32Z M854.20-21.20Q858.16-21.20 860.50-18.90Q862.84-16.60 862.84-12.20L862.84-12.20L862.84 0L860.00 0L860.00-11.92Q860.00-15.20 858.36-16.92Q856.72-18.64 853.68-18.64L853.68-18.64Q850.28-18.64 848.30-16.62Q846.32-14.60 846.32-11.04L846.32-11.04L846.32 0L843.48 0L843.48-21.04L846.20-21.04L846.20-17.16Q847.36-19.08 849.42-20.14Q851.48-21.20 854.20-21.20L854.20-21.20Z"/></g>
</svg>
</g><g opacity="1" transform="rotate(0 45.397 216.0831)">
<svg width="399.1176" height="60" x="45.397" y="216.0831" version="1.1" preserveAspectRatio="none" viewBox="2.6 -30.4 211.00000000000003 31.72">
  <g transform="matrix(1 0 0 1 0 0)" class="companyName"><path id="id-D6z1nYkh10" d="M18.72-25.20Q17.28-25.88 15.52-26.36Q13.76-26.84 12.08-26.84L12.08-26.84Q9.28-26.84 7.60-25.46Q5.92-24.08 5.92-21.92L5.92-21.92Q5.92-20.40 6.82-19.34Q7.72-18.28 9.12-17.58Q10.52-16.88 12.72-16.04L12.72-16.04Q15.12-15.16 16.70-14.24Q18.28-13.32 19.36-11.74Q20.44-10.16 20.44-7.68L20.44-7.68Q20.44-5.32 19.32-3.50Q18.20-1.68 16.18-0.68Q14.16 0.32 11.56 0.32L11.56 0.32Q7.04 0.32 2.60-2.60L2.60-2.60L3.52-4.20Q5-3.08 7.16-2.24Q9.32-1.40 11.36-1.40L11.36-1.40Q13.16-1.40 14.78-2.10Q16.40-2.80 17.42-4.22Q18.44-5.64 18.44-7.64L18.44-7.64Q18.44-9.52 17.50-10.80Q16.56-12.08 15.14-12.86Q13.72-13.64 11.56-14.44L11.56-14.44Q9.16-15.32 7.60-16.14Q6.04-16.96 4.98-18.32Q3.92-19.68 3.92-21.72L3.92-21.72Q3.92-23.72 4.94-25.26Q5.96-26.80 7.78-27.66Q9.60-28.52 11.84-28.56L11.84-28.56Q13.76-28.56 15.82-28.04Q17.88-27.52 19.48-26.72L19.48-26.72L18.72-25.20Z M25.28-7.92Q25.28-10.16 26.38-12.06Q27.48-13.96 29.40-15.06Q31.32-16.16 33.64-16.16L33.64-16.16Q35.96-16.16 37.88-15.06Q39.80-13.96 40.88-12.06Q41.96-10.16 41.96-7.92L41.96-7.92Q41.96-5.64 40.86-3.76Q39.76-1.88 37.86-0.78Q35.96 0.32 33.60 0.32L33.60 0.32Q31.24 0.32 29.34-0.74Q27.44-1.80 26.36-3.68Q25.28-5.56 25.28-7.92L25.28-7.92ZM27.16-7.88Q27.16-6.08 28.02-4.56Q28.88-3.04 30.36-2.16Q31.84-1.28 33.60-1.28L33.60-1.28Q35.36-1.28 36.84-2.16Q38.32-3.04 39.18-4.56Q40.04-6.08 40.04-7.88L40.04-7.88Q40.04-9.68 39.18-11.22Q38.32-12.76 36.84-13.64Q35.36-14.52 33.60-14.52L33.60-14.52Q31.80-14.52 30.32-13.58Q28.84-12.64 28-11.12Q27.16-9.60 27.16-7.88L27.16-7.88Z M58.92-15.64L60.80-15.64L60.80 0L59.12 0L59-3.32Q58.24-1.68 56.40-0.62Q54.56 0.44 52.48 0.44L52.48 0.44Q50.32 0.44 48.98-0.86Q47.64-2.16 47.56-4.24L47.56-4.24L47.56-15.64L49.44-15.64L49.44-4.80Q49.52-3.20 50.44-2.24Q51.36-1.28 53.12-1.20L53.12-1.20Q54.64-1.20 55.98-2Q57.32-2.80 58.12-4.20Q58.92-5.60 58.92-7.32L58.92-7.32L58.92-15.64Z M76.32-16.08Q78.48-16.08 79.84-14.78Q81.20-13.48 81.28-11.40L81.28-11.40L81.28 0L79.36 0L79.36-10.88Q79.28-12.44 78.36-13.42Q77.44-14.40 75.72-14.44L75.72-14.44Q74.12-14.44 72.78-13.68Q71.44-12.92 70.62-11.54Q69.80-10.16 69.80-8.40L69.80-8.40L69.80 0L67.92 0L67.92-15.64L69.56-15.64L69.72-12.16Q70.48-13.96 72.30-15.02Q74.12-16.08 76.32-16.08L76.32-16.08Z M101.88-30.40L103.76-30.40L103.76 0L101.84 0L101.84-3.24Q100.76-1.64 98.88-0.66Q97 0.32 94.80 0.32L94.80 0.32Q92.60 0.32 90.78-0.74Q88.96-1.80 87.92-3.70Q86.88-5.60 86.88-7.92L86.88-7.92Q86.88-10.36 87.96-12.24Q89.04-14.12 90.88-15.12Q92.72-16.12 95-16.12L95-16.12Q97.04-16.12 98.94-15.12Q100.84-14.12 101.88-12.48L101.88-12.48L101.88-30.40ZM95.28-1.32Q97.96-1.32 99.80-3Q101.64-4.68 101.84-7.24L101.84-7.24L101.84-9.24Q101.40-11.52 99.54-13.04Q97.68-14.56 95.28-14.56L95.28-14.56Q93.48-14.56 92-13.72Q90.52-12.88 89.64-11.38Q88.76-9.88 88.76-7.96L88.76-7.96Q88.76-6.16 89.64-4.64Q90.52-3.12 92.02-2.22Q93.52-1.32 95.28-1.32L95.28-1.32Z M157.36-28.32L145.96 1.28L139.44-15.80L132.76 1.32L121.56-28.32L123.80-28.32L132.96-3.28L138.48-18.24L134.64-28.32L136.60-28.32L146.04-3.52L155.28-28.32L157.36-28.32Z M172.56-15.64L174.24-15.64L174.24 0L172.36 0L172.36-3.32Q171.44-1.80 169.56-0.74Q167.68 0.32 165.48 0.32L165.48 0.32Q163.24 0.32 161.42-0.70Q159.60-1.72 158.54-3.58Q157.48-5.44 157.48-7.84L157.48-7.84Q157.48-10.40 158.58-12.26Q159.68-14.12 161.62-15.12Q163.56-16.12 166-16.12L166-16.12Q167.92-16.12 169.68-15.04Q171.44-13.96 172.36-12.24L172.36-12.24L172.56-15.64ZM165.88-1.28Q168.52-1.28 170.36-2.92Q172.20-4.56 172.36-7.12L172.36-7.12L172.36-9.36Q171.88-11.56 170.04-13.04Q168.20-14.52 165.84-14.52L165.84-14.52Q164.04-14.52 162.56-13.70Q161.08-12.88 160.22-11.38Q159.36-9.88 159.36-7.92L159.36-7.92Q159.36-6.12 160.24-4.60Q161.12-3.08 162.62-2.18Q164.12-1.28 165.88-1.28L165.88-1.28Z M192.76-15.64L194.84-15.64L187.08 0.60L186.84 0.60L178.92-15.64L181.12-15.64L187.04-2.76L192.76-15.64Z M206.16-1.32Q208.68-1.32 210.72-3.04L210.72-3.04L211.68-1.68Q210.52-0.76 209.06-0.22Q207.60 0.32 206.12 0.32L206.12 0.32Q203.72 0.32 201.82-0.76Q199.92-1.84 198.86-3.70Q197.80-5.56 197.80-7.88L197.80-7.88Q197.80-10.12 198.92-12.02Q200.04-13.92 201.96-15.04Q203.88-16.16 206.16-16.16L206.16-16.16Q208.88-16.16 210.80-14.56Q212.72-12.96 213.60-10.24L213.60-10.24L200.24-5.08Q201.00-3.40 202.58-2.36Q204.16-1.32 206.16-1.32L206.16-1.32ZM206.04-14.56Q204.28-14.56 202.80-13.68Q201.32-12.80 200.48-11.30Q199.64-9.80 199.64-7.96L199.64-7.96Q199.64-7.12 199.80-6.48L199.80-6.48L211.32-11Q210.56-12.60 209.20-13.58Q207.84-14.56 206.04-14.56L206.04-14.56Z"/></g>
</svg>
</g><g opacity="1" transform="rotate(0 199.9558 172.218)">
<svg width="90" height="13.8651" x="199.9558" y="172.218" version="1.1" preserveAspectRatio="none" viewBox="0.5889999866485596 41.172000885009766 99.43099975585938 15.318000793457031">
  <g transform="matrix(1 0 0 1 0 0)" class="icon1"><g><polygon points="79.293,56.49 69.632,46.829 59.97,56.49 50.309,46.829 40.647,56.49 30.985,46.829 21.324,56.49 11.66,46.827    3.412,55.046 0.589,52.213 11.665,41.174 21.324,50.833 30.985,41.172 40.647,50.833 50.309,41.172 59.97,50.833 69.632,41.172    79.293,50.833 88.944,41.183 100.02,52.095 97.213,54.944 88.966,46.818  "></polygon></g></g>
</svg>
</g></svg></svg>